<?xml version="1.0" encoding="UTF-8"?> <svg xmlns="http://www.w3.org/2000/svg" id="Layer_1" data-name="Layer 1" viewBox="0 0 210.7 174.37"> <defs> <style>.cls-1{fill:#fcd502;}.cls-2{fill:#4fc6df;}.cls-3{fill:#99cb52;}.cls-4{fill:#fff;}</style> </defs> <title>Artboard 2</title> <g id="_Group_" data-name="&lt;Group&gt;"> <g id="_Group_2" data-name="&lt;Group&gt;"> <polygon id="_Path_" data-name="&lt;Path&gt;" class="cls-1" points="113.06 35.99 108.96 36.94 105.88 30.2 102.81 36.94 98.71 35.99 103.48 24.05 108.22 24.05 113.06 35.99"></polygon> <g id="_Group_3" data-name="&lt;Group&gt;"> <path id="_Compound_Path_" data-name="&lt;Compound Path&gt;" class="cls-2" d="M105.89,105.18a33.57,33.57,0,1,1,33.56-33.57A33.61,33.61,0,0,1,105.89,105.18Zm0-62.91a29.35,29.35,0,1,0,29.34,29.34A29.38,29.38,0,0,0,105.89,42.27Z"></path> </g> <polygon id="_Path_2" data-name="&lt;Path&gt;" class="cls-1" points="98.71 107.23 102.81 106.29 105.89 113.03 108.97 106.29 113.06 107.23 108.3 119.17 103.55 119.17 98.71 107.23"></polygon> <polygon id="_Path_3" data-name="&lt;Path&gt;" class="cls-1" points="141.51 78.79 140.56 74.69 147.3 71.61 140.56 68.53 141.51 64.44 153.45 69.2 153.45 73.95 141.51 78.79"></polygon> <polygon id="_Path_4" data-name="&lt;Path&gt;" class="cls-1" points="70.27 64.44 71.21 68.54 64.48 71.62 71.21 74.69 70.27 78.79 58.33 74.02 58.33 69.28 70.27 64.44"></polygon> <polygon id="_Path_5" data-name="&lt;Path&gt;" class="cls-1" points="136.15 51.5 132.58 49.27 135.16 42.33 128.23 44.91 126 41.35 137.81 36.28 141.17 39.63 136.15 51.5"></polygon> <polygon id="_Path_6" data-name="&lt;Path&gt;" class="cls-1" points="75.63 91.72 79.19 93.96 76.61 100.9 83.55 98.31 85.78 101.88 73.96 106.95 70.61 103.59 75.63 91.72"></polygon> <polygon id="_Path_7" data-name="&lt;Path&gt;" class="cls-1" points="126 101.88 128.23 98.31 135.17 100.89 132.59 93.95 136.15 91.72 141.22 103.54 137.87 106.89 126 101.88"></polygon> <polygon id="_Path_8" data-name="&lt;Path&gt;" class="cls-1" points="85.78 41.35 83.54 44.92 76.6 42.34 79.19 49.27 75.63 51.5 70.55 39.69 73.91 36.33 85.78 41.35"></polygon> <polygon id="_Path_9" data-name="&lt;Path&gt;" class="cls-3" points="123.8 84.19 123.8 80.33 107.98 73.75 107.98 69.85 120.92 75.19 120.92 71.32 107.98 65.86 107.98 62.18 118.58 66.58 118.58 62.71 107.98 58.2 107.98 54.65 115.77 57.78 115.77 53.91 105.86 49.79 96.04 53.91 96.04 57.78 103.83 54.56 103.83 58.21 93.22 62.71 93.22 66.58 103.83 62.12 103.83 65.96 90.89 71.32 90.89 75.19 103.83 69.87 103.83 73.74 88.01 80.51 88.01 84.38 103.83 77.66 103.83 86.21 94.02 86.21 95.54 89.6 116.25 89.6 117.78 86.21 107.98 86.21 107.98 77.73 123.8 84.19"></polygon> </g> <g id="_Group_4" data-name="&lt;Group&gt;"> <polygon id="_Path_10" data-name="&lt;Path&gt;" class="cls-4" points="0 141.15 3.89 141.15 3.89 152.37 5.58 152.37 5.58 141.15 9.01 141.15 9.47 140.68 9.47 139.63 0 139.63 0 141.15"></polygon> <polygon id="_Path_11" data-name="&lt;Path&gt;" class="cls-4" points="11.05 152.37 19.45 152.37 19.45 150.85 12.74 150.85 12.74 146.63 17.77 146.63 17.77 145.11 12.74 145.11 12.74 141.15 18.99 141.15 19.45 140.68 19.45 139.63 11.05 139.63 11.05 152.37"></polygon> <polygon id="_Path_12" data-name="&lt;Path&gt;" class="cls-4" points="20.95 141.15 24.83 141.15 24.83 152.37 26.52 152.37 26.52 141.15 29.95 141.15 30.41 140.68 30.41 139.63 20.95 139.63 20.95 141.15"></polygon> <polygon id="_Path_13" data-name="&lt;Path&gt;" class="cls-4" points="32.54 152.37 40.95 152.37 40.95 150.85 34.23 150.85 34.23 146.63 39.27 146.63 39.27 145.11 34.23 145.11 34.23 141.15 40.49 141.15 40.95 140.68 40.95 139.63 32.54 139.63 32.54 152.37"></polygon> <path id="_Compound_Path_2" data-name="&lt;Compound Path&gt;" class="cls-4" d="M51,140.51a3.33,3.33,0,0,0-1-.65,3.85,3.85,0,0,0-1.34-.23H43v12.74h1.69v-4.15h4A3.63,3.63,0,0,0,50,148a3,3,0,0,0,1-.65,2.94,2.94,0,0,0,.67-1,3.28,3.28,0,0,0,.23-1.23v-2.39a3.34,3.34,0,0,0-.23-1.24A3.16,3.16,0,0,0,51,140.51Zm-.79,2.22v2.39a1.39,1.39,0,0,1-.13.61,1.58,1.58,0,0,1-.34.5,1.43,1.43,0,0,1-.5.34,1.41,1.41,0,0,1-.62.13h-4v-5.55h4a1.56,1.56,0,0,1,.62.12,1.77,1.77,0,0,1,.5.34,1.58,1.58,0,0,1,.34.5A1.47,1.47,0,0,1,50.2,142.73Z"></path> <rect id="_Path_14" data-name="&lt;Path&gt;" class="cls-4" x="54.32" y="139.63" width="1.69" height="12.74"></rect> <path id="_Compound_Path_3" data-name="&lt;Compound Path&gt;" class="cls-4" d="M66.68,145.94a3,3,0,0,0-.72-.36,2,2,0,0,0,.43-.29,2.51,2.51,0,0,0,.56-.69,2.43,2.43,0,0,0,.25-1.16v-.71a3.15,3.15,0,0,0-.24-1.24,2.85,2.85,0,0,0-.67-1,3.06,3.06,0,0,0-1-.65,3.79,3.79,0,0,0-1.33-.23H58.61v12.74h5.93a3.79,3.79,0,0,0,1.33-.23,3.33,3.33,0,0,0,1-.65,2.85,2.85,0,0,0,.67-1,3.15,3.15,0,0,0,.24-1.24v-1.15a2.44,2.44,0,0,0-.35-1.37A2.78,2.78,0,0,0,66.68,145.94Zm-2.14,4.91H60.3v-4.31h4.24a1.59,1.59,0,0,1,.62.12,1.59,1.59,0,0,1,.84.85,1.51,1.51,0,0,1,.13.61v1.15a1.6,1.6,0,0,1-.13.62,1.85,1.85,0,0,1-.34.5,1.77,1.77,0,0,1-.5.34A1.59,1.59,0,0,1,64.54,150.85Zm1-7.41a1.55,1.55,0,0,1-.13.61,1.58,1.58,0,0,1-.34.5,1.6,1.6,0,0,1-1.12.47H60.3v-3.87h3.62a1.59,1.59,0,0,1,.62.12,1.77,1.77,0,0,1,.5.34,1.7,1.7,0,0,1,.34.5,1.44,1.44,0,0,1,.13.62Z"></path> <path id="_Path_15" data-name="&lt;Path&gt;" class="cls-4" d="M71.63,139.86a3.27,3.27,0,0,0-1,.65,3.16,3.16,0,0,0-.67,1,3.34,3.34,0,0,0-.23,1.24v6.54a3.34,3.34,0,0,0,.23,1.24,3.16,3.16,0,0,0,.67,1,3.27,3.27,0,0,0,1,.65,3.79,3.79,0,0,0,1.33.23h5.31v-1.52H73a1.56,1.56,0,0,1-.62-.12,1.59,1.59,0,0,1-.84-.85,1.36,1.36,0,0,1-.13-.61v-6.54a1.44,1.44,0,0,1,.13-.62,1.7,1.7,0,0,1,.34-.5,1.53,1.53,0,0,1,1.12-.46H77.8l.47-.47v-1.05H73A3.75,3.75,0,0,0,71.63,139.86Z"></path> <path id="_Compound_Path_4" data-name="&lt;Compound Path&gt;" class="cls-4" d="M88.87,145a3.16,3.16,0,0,0-1-.65,3.83,3.83,0,0,0-1.33-.23h-4v-4.51H80.83v12.74H86.5a3.87,3.87,0,0,0,1.33-.23,3.16,3.16,0,0,0,1-.65,3,3,0,0,0,.67-1,3.34,3.34,0,0,0,.23-1.24v-2a3.34,3.34,0,0,0-.23-1.24A2.8,2.8,0,0,0,88.87,145Zm-2.37,5.83h-4v-5.2h4a1.39,1.39,0,0,1,.61.13,1.62,1.62,0,0,1,.84.84,1.44,1.44,0,0,1,.13.62v2a1.36,1.36,0,0,1-.13.61,1.63,1.63,0,0,1-.34.51,1.77,1.77,0,0,1-.5.34A1.54,1.54,0,0,1,86.5,150.85Z"></path> <polygon id="_Path_16" data-name="&lt;Path&gt;" class="cls-4" points="101.08 140.44 101.1 140.39 101.1 139.63 99.49 139.63 96.48 145.11 93.86 145.11 93.86 139.63 92.16 139.63 92.16 152.37 93.86 152.37 93.86 146.63 96.48 146.63 99.66 152.37 101.28 152.37 101.28 151.61 97.86 145.82 101.08 140.44"></polygon> <polygon id="_Path_17" data-name="&lt;Path&gt;" class="cls-4" points="105.32 149.55 105.45 147.68 105.45 139.63 103.76 139.63 103.76 152.37 105.46 152.37 111.23 142.45 111.09 144.32 111.09 152.37 112.79 152.37 112.79 139.63 111.08 139.63 105.32 149.55"></polygon> <path id="_Path_18" data-name="&lt;Path&gt;" class="cls-4" d="M120.4,138.49h1.33a2.29,2.29,0,0,0,1.65-.55,2.14,2.14,0,0,0,.56-1.57v-.81h-1.51v.81a.89.89,0,0,1-.19.59.67.67,0,0,1-.51.19H120.4a.66.66,0,0,1-.51-.19.82.82,0,0,1-.19-.59v-.81h-1.52v.81a2.14,2.14,0,0,0,.57,1.57A2.27,2.27,0,0,0,120.4,138.49Z"></path> <polygon id="_Path_19" data-name="&lt;Path&gt;" class="cls-4" points="118.06 149.55 118.2 147.68 118.2 139.63 116.5 139.63 116.5 152.37 118.21 152.37 123.97 142.45 123.84 144.32 123.84 152.37 125.53 152.37 125.53 139.63 123.83 139.63 118.06 149.55"></polygon> <path id="_Compound_Path_5" data-name="&lt;Compound Path&gt;" class="cls-4" d="M142.07,145.46a3.16,3.16,0,0,0-1-.65,3.79,3.79,0,0,0-1.33-.23h-4v-3.43h6.08l.46-.47v-1.05H134v12.74h5.66a3.79,3.79,0,0,0,1.33-.23,3.16,3.16,0,0,0,1-.65,2.85,2.85,0,0,0,.67-1,3.15,3.15,0,0,0,.24-1.24v-1.59a3.12,3.12,0,0,0-.24-1.24A2.68,2.68,0,0,0,142.07,145.46Zm-.78,2.22v1.59a1.36,1.36,0,0,1-.13.61,1.63,1.63,0,0,1-.34.51,1.77,1.77,0,0,1-.5.34,1.59,1.59,0,0,1-.62.12h-4V146.1h4a1.59,1.59,0,0,1,.62.12,1.77,1.77,0,0,1,.5.34,1.58,1.58,0,0,1,.34.5A1.44,1.44,0,0,1,141.29,147.68Z"></path> <path id="_Path_20" data-name="&lt;Path&gt;" class="cls-4" d="M153.87,139.63h-1.64l-3.1,8-3.28-8h-1.63v.71l4,9.11c-.42,1.06-1,1.58-1.65,1.58h-.9v1.52h.9a3.79,3.79,0,0,0,1.17-.17,2.73,2.73,0,0,0,.93-.54,4.14,4.14,0,0,0,.75-1,10.34,10.34,0,0,0,.67-1.37l3.8-9.11Z"></path> <path id="_Path_21" data-name="&lt;Path&gt;" class="cls-4" d="M156,149.34a2,2,0,0,1-.55,1.25,1.37,1.37,0,0,1-1,.44h-.63v1.52h.63a3,3,0,0,0,2.29-.87,4,4,0,0,0,1-2.3l1-8.23h4.17v11.22h1.69V139.63h-7.42Z"></path> <path id="_Compound_Path_6" data-name="&lt;Compound Path&gt;" class="cls-4" d="M175.32,145a3,3,0,0,0-1-.65,3.79,3.79,0,0,0-1.33-.23h-4v-4.51h-1.69v12.74H173a3.79,3.79,0,0,0,1.33-.23,3.16,3.16,0,0,0,1-.65,2.85,2.85,0,0,0,.67-1,3.15,3.15,0,0,0,.24-1.24v-2A3.15,3.15,0,0,0,176,146,2.68,2.68,0,0,0,175.32,145Zm-.78,2.22v2a1.51,1.51,0,0,1-.13.61,1.63,1.63,0,0,1-.34.51,1.77,1.77,0,0,1-.5.34,1.59,1.59,0,0,1-.62.12h-4v-5.2h4a1.44,1.44,0,0,1,.62.13,1.58,1.58,0,0,1,.5.34,1.77,1.77,0,0,1,.34.5A1.6,1.6,0,0,1,174.54,147.24Z"></path> <path id="_Compound_Path_7" data-name="&lt;Compound Path&gt;" class="cls-4" d="M186.54,145.94a2.79,2.79,0,0,0-.71-.36,2.31,2.31,0,0,0,1.24-2.14v-.71a3.15,3.15,0,0,0-.24-1.24,3,3,0,0,0-.67-1,3.33,3.33,0,0,0-1-.65,3.79,3.79,0,0,0-1.33-.23h-5.31v12.74h5.93a3.83,3.83,0,0,0,1.33-.23,3.16,3.16,0,0,0,1-.65,3,3,0,0,0,.67-1,3.34,3.34,0,0,0,.23-1.24v-1.15a2.44,2.44,0,0,0-.34-1.37A2.94,2.94,0,0,0,186.54,145.94Zm-2.13,4.91h-4.24v-4.31h4.24a1.54,1.54,0,0,1,.61.12,1.64,1.64,0,0,1,.5.34,1.78,1.78,0,0,1,.35.51,1.51,1.51,0,0,1,.12.61v1.15a1.59,1.59,0,0,1-.12.62,1.88,1.88,0,0,1-.35.5,1.77,1.77,0,0,1-.5.34A1.54,1.54,0,0,1,184.41,150.85Zm1-7.41a1.54,1.54,0,0,1-.12.61,1.61,1.61,0,0,1-.35.5,1.43,1.43,0,0,1-.5.34,1.36,1.36,0,0,1-.61.13h-3.62v-3.87h3.62a1.51,1.51,0,0,1,.61.12,2,2,0,0,1,.51.34,1.92,1.92,0,0,1,.34.5,1.59,1.59,0,0,1,.12.62Z"></path> <path id="_Compound_Path_8" data-name="&lt;Compound Path&gt;" class="cls-4" d="M195.16,139.63H193.4l-4.37,12,0,.78h1.65l1.06-3.18h5.12l1.06,3.18h1.65v-.71l-4.35-11.91Zm1.12,8h-4l2-5.83Z"></path> <path id="_Compound_Path_9" data-name="&lt;Compound Path&gt;" class="cls-4" d="M210.46,141.49a2.85,2.85,0,0,0-.67-1,3.06,3.06,0,0,0-1-.65,3.79,3.79,0,0,0-1.33-.23h-5.66v12.74h1.69v-4.15h4a3.58,3.58,0,0,0,1.33-.24,2.83,2.83,0,0,0,1-.65,2.68,2.68,0,0,0,.67-1,3.1,3.1,0,0,0,.24-1.23v-2.39A3.15,3.15,0,0,0,210.46,141.49ZM209,142.73v2.39a1.39,1.39,0,0,1-.13.61,1.58,1.58,0,0,1-.34.5,1.6,1.6,0,0,1-1.12.47h-4v-5.55h4a1.59,1.59,0,0,1,.62.12,1.77,1.77,0,0,1,.5.34,1.58,1.58,0,0,1,.34.5A1.44,1.44,0,0,1,209,142.73Z"></path> </g> <g id="_Group_5" data-name="&lt;Group&gt;"> <g id="_Group_6" data-name="&lt;Group&gt;"> <path id="_Compound_Path_10" data-name="&lt;Compound Path&gt;" class="cls-4" d="M55,163.8h.72l2.42,3.07-2.66,3.23h-.72l2.66-3.23Zm4.43,6.3h-.56v-6.3h.56Zm1.46-3.23,2.66,3.23h-.73l-2.66-3.23,2.42-3.07h.73Z"></path> <path id="_Compound_Path_11" data-name="&lt;Compound Path&gt;" class="cls-4" d="M70.31,163.64v6.46h-.56v-5l-4.6,5.17V163.8h.57v5Z"></path> <path id="_Compound_Path_12" data-name="&lt;Compound Path&gt;" class="cls-4" d="M71.93,163.8h5.24v.57H74.83v5.73h-.56v-5.73H71.93Z"></path> <path id="_Compound_Path_13" data-name="&lt;Compound Path&gt;" class="cls-4" d="M83.06,170.1v-5.73H80l-.4,3.87a2.79,2.79,0,0,1-.52,1.56,1.29,1.29,0,0,1-1,.46l-.23,0h-.18a.43.43,0,0,0-.16,0l.08-.57.15,0a.49.49,0,0,0,.16.05H78a.8.8,0,0,0,.64-.33,2.2,2.2,0,0,0,.35-1.12l.48-4.44h4.11v6.3Z"></path> <path id="_Compound_Path_14" data-name="&lt;Compound Path&gt;" class="cls-4" d="M89,170.42a3.08,3.08,0,0,1-1.27-.27,3.22,3.22,0,0,1-1.06-.74,3.65,3.65,0,0,1-.71-1.1,3.44,3.44,0,0,1-.27-1.36,3.36,3.36,0,0,1,.27-1.35,3.57,3.57,0,0,1,.71-1.11,3.38,3.38,0,0,1,1.06-.74,3.08,3.08,0,0,1,1.27-.27,3,3,0,0,1,1.26.27,3.17,3.17,0,0,1,1.06.74A3.79,3.79,0,0,1,92,165.6a3.35,3.35,0,0,1,.26,1.35,3.43,3.43,0,0,1-.26,1.36,3.88,3.88,0,0,1-.72,1.1,3.26,3.26,0,0,1-2.32,1Zm0-.57a2.42,2.42,0,0,0,1-.22,3.13,3.13,0,0,0,.88-.62,3.51,3.51,0,0,0,.62-.93,2.92,2.92,0,0,0,0-2.27,3.18,3.18,0,0,0-.6-.92,2.82,2.82,0,0,0-.87-.62,2.49,2.49,0,0,0-1-.22,2.43,2.43,0,0,0-1,.22,2.82,2.82,0,0,0-.87.62,3,3,0,0,0-.61.92A2.87,2.87,0,0,0,86.2,167a2.73,2.73,0,0,0,.24,1.13,3.09,3.09,0,0,0,.62.93,3,3,0,0,0,.88.62A2.39,2.39,0,0,0,89,169.85Z"></path> <path id="_Compound_Path_15" data-name="&lt;Compound Path&gt;" class="cls-4" d="M94.27,163.8h2.5a2.16,2.16,0,0,1,1.49.47,1.49,1.49,0,0,1,.53,1.15,1.07,1.07,0,0,1-.16.6,1.41,1.41,0,0,1-.36.37,2.32,2.32,0,0,1-.53.24v.08a2,2,0,0,1,.73.29,1.83,1.83,0,0,1,.5.5,1.35,1.35,0,0,1,.22.82,1.61,1.61,0,0,1-.58,1.25,2.43,2.43,0,0,1-1.68.53H94.27Zm2.5,2.67a1.61,1.61,0,0,0,1.09-.32.94.94,0,0,0,.36-.73,1,1,0,0,0-.36-.74,1.61,1.61,0,0,0-1.09-.31H94.84v2.1Zm.16,3.06a1.94,1.94,0,0,0,1.28-.36,1.1,1.1,0,0,0,.42-.85,1.19,1.19,0,0,0-.42-.92,1.94,1.94,0,0,0-1.28-.37H94.84v2.5Z"></path> <path id="_Compound_Path_16" data-name="&lt;Compound Path&gt;" class="cls-4" d="M106.45,163.64v6.46h-.56v-5l-4.6,5.17V163.8h.56v5Z"></path> <path id="_Compound_Path_17" data-name="&lt;Compound Path&gt;" class="cls-4" d="M114.19,163.64v6.46h-.56v-5l-4.6,5.17V163.8h.57v5Zm-2.58-2.34A1.26,1.26,0,0,0,112.9,160h.57a1.81,1.81,0,0,1-.53,1.36,1.89,1.89,0,0,1-1.33.5,1.75,1.75,0,0,1-.72-.15,1.84,1.84,0,0,1-.59-.39,1.8,1.8,0,0,1-.54-1.32h.56a1.26,1.26,0,0,0,1.29,1.29Z"></path> <path id="_Compound_Path_18" data-name="&lt;Compound Path&gt;" class="cls-4" d="M119.6,163.8h.56v1.13h.08a2.83,2.83,0,0,1,1.3-1.23,2.48,2.48,0,0,1,1.12-.22,2.77,2.77,0,0,1,1.17.26,3.07,3.07,0,0,1,1,.72,3.36,3.36,0,0,1,.68,1.09,4,4,0,0,1,0,2.8,3.36,3.36,0,0,1-.68,1.09,3.07,3.07,0,0,1-1,.72,2.77,2.77,0,0,1-1.17.26,2.48,2.48,0,0,1-1.12-.23,2.88,2.88,0,0,1-.75-.5,2.76,2.76,0,0,1-.55-.72h-.08v5.4h-.56Zm5.57,3.15a3.32,3.32,0,0,0-.21-1.16,3,3,0,0,0-.56-.92,2.62,2.62,0,0,0-.8-.61,2.19,2.19,0,0,0-.94-.21,2.38,2.38,0,0,0-1,.19,2.68,2.68,0,0,0-.79.51,2.35,2.35,0,0,0-.54.72,1.86,1.86,0,0,0-.21.83v1.3a1.82,1.82,0,0,0,.21.83,2.35,2.35,0,0,0,.54.72,2.68,2.68,0,0,0,.79.51,2.38,2.38,0,0,0,1,.19,2.19,2.19,0,0,0,.94-.21,2.62,2.62,0,0,0,.8-.61,3,3,0,0,0,.56-.92A3.32,3.32,0,0,0,125.17,167Z"></path> <path id="_Compound_Path_19" data-name="&lt;Compound Path&gt;" class="cls-4" d="M130,163.48a2.6,2.6,0,0,1,1,.2,2.54,2.54,0,0,1,.83.52,2.44,2.44,0,0,1,.54.77,2.11,2.11,0,0,1,.21.93v4.2H132V169h-.08a3,3,0,0,1-.56.72,2.86,2.86,0,0,1-.74.51,2.19,2.19,0,0,1-1,.22,2.86,2.86,0,0,1-1-.17,2.45,2.45,0,0,1-.76-.44,2.07,2.07,0,0,1-.49-.65,1.69,1.69,0,0,1,0-1.52,1.86,1.86,0,0,1,.52-.64,2.84,2.84,0,0,1,.83-.45,3.63,3.63,0,0,1,1.13-.16,7.27,7.27,0,0,1,.82,0c.26,0,.5.07.7.12a4,4,0,0,1,.66.16v-.81a1.58,1.58,0,0,0-.16-.72,2,2,0,0,0-1.07-1,2.26,2.26,0,0,0-.79-.14,1.78,1.78,0,0,0-.8.16,2.87,2.87,0,0,0-.58.35,2.59,2.59,0,0,0-.47.53l-.4-.32a2.7,2.7,0,0,1,.54-.64,2.78,2.78,0,0,1,.71-.45A2.31,2.31,0,0,1,130,163.48Zm2,3.79c-.21-.06-.44-.11-.69-.16l-.7-.11a6.84,6.84,0,0,0-.79-.05,3.06,3.06,0,0,0-.9.12,1.89,1.89,0,0,0-.65.33,1.49,1.49,0,0,0-.41.47,1.12,1.12,0,0,0-.13.53,1.09,1.09,0,0,0,.13.53,1.38,1.38,0,0,0,.37.47,1.68,1.68,0,0,0,.59.33,2.29,2.29,0,0,0,.76.12,2.32,2.32,0,0,0,.89-.18,2.66,2.66,0,0,0,.77-.49,2.3,2.3,0,0,0,.55-.69,1.69,1.69,0,0,0,.21-.81Z"></path> <path id="_Compound_Path_20" data-name="&lt;Compound Path&gt;" class="cls-4" d="M140.25,163.64v6.46h-.57v-5l-4.59,5.17V163.8h.56v5Zm-2.58-2.34A1.26,1.26,0,0,0,139,160h.56a1.77,1.77,0,0,1-.53,1.36,1.85,1.85,0,0,1-1.32.5,1.8,1.8,0,0,1-.73-.15,1.77,1.77,0,0,1-1-1,1.8,1.8,0,0,1-.15-.73h.57a1.22,1.22,0,0,0,.37.92A1.24,1.24,0,0,0,137.67,161.3Z"></path> <path id="_Compound_Path_21" data-name="&lt;Compound Path&gt;" class="cls-4" d="M145.57,170.42a3.26,3.26,0,0,1-2.32-1,3.88,3.88,0,0,1-.72-1.1,3.43,3.43,0,0,1-.26-1.36,3.35,3.35,0,0,1,.26-1.35,3.79,3.79,0,0,1,.72-1.11,3.17,3.17,0,0,1,1.06-.74,3,3,0,0,1,1.26-.27,3.08,3.08,0,0,1,1.27.27,3.38,3.38,0,0,1,1.06.74,3.57,3.57,0,0,1,.71,1.11,3.36,3.36,0,0,1,.27,1.35,3.44,3.44,0,0,1-.27,1.36,3.65,3.65,0,0,1-.71,1.1,3.22,3.22,0,0,1-1.06.74A3.08,3.08,0,0,1,145.57,170.42Zm0-.57a2.39,2.39,0,0,0,1-.22,3,3,0,0,0,.88-.62,3.09,3.09,0,0,0,.62-.93,2.73,2.73,0,0,0,.24-1.13,2.87,2.87,0,0,0-.23-1.14,3,3,0,0,0-.61-.92,2.82,2.82,0,0,0-.87-.62,2.43,2.43,0,0,0-1-.22,2.49,2.49,0,0,0-1,.22,2.82,2.82,0,0,0-.87.62,3.18,3.18,0,0,0-.6.92,2.92,2.92,0,0,0,0,2.27,3.32,3.32,0,0,0,.63.93,2.87,2.87,0,0,0,.88.62A2.35,2.35,0,0,0,145.57,169.85Z"></path> <path id="_Compound_Path_22" data-name="&lt;Compound Path&gt;" class="cls-4" d="M156.06,170.1h-.57v-2.75h-4v2.75h-.56v-6.3h.56v3h4v-3h.57Z"></path> </g> </g> <polygon id="_Path_22" data-name="&lt;Path&gt;" class="cls-1" points="165.09 170.43 164.63 168.4 167.97 166.88 164.64 165.34 165.11 163.32 171.03 165.7 171.02 168.05 165.09 170.43"></polygon> <polygon id="_Path_23" data-name="&lt;Path&gt;" class="cls-1" points="46.39 163.33 46.85 165.37 43.51 166.89 46.84 168.42 46.37 170.45 40.46 168.07 40.46 165.72 46.39 163.33"></polygon> </g> </svg> 