<?xml version="1.0" encoding="iso-8859-1"?>
<!-- Generator: Adobe Illustrator 19.0.0, SVG Export Plug-In . SVG Version: 6.00 Build 0)  -->
<svg version="1.1" id="Capa_1" xmlns="http://www.w3.org/2000/svg" xmlns:xlink="http://www.w3.org/1999/xlink" x="0px" y="0px"
	 viewBox="0 0 512 512" style="enable-background:new 0 0 512 512;" xml:space="preserve">
<path style="fill:#FFC477;" d="M480.156,429.229l-13.734-31.5c-3.996-9.167-14.766-13.397-23.933-9.4l-0.657,0.287
	c12.344-5.383,18.04-19.885,12.658-32.23l-38.503-88.309c-5.382-12.345-19.886-18.042-32.231-12.659l-75.791,33.044l-47.793-109.619
	c-5.714-13.105-20.513-20.057-34.036-15.414c-15.175,5.209-22.466,22.28-16.178,36.703l50.488,115.797
	c0.224,0.515,0.47,1.013,0.726,1.505c0.186,0.521,0.384,1.041,0.609,1.556c2.419,5.549-2.655,11.432-8.499,9.854l-17.303-4.671
	c-14.168-4.035-29.057,4.153-33.272,18.224c-4.32,14.425,4.592,29.775,19.074,33.899l70.92,20.2
	c2.075,0.591,3.777,2.079,4.639,4.058l8.92,20.46c5.382,12.345,19.886,18.042,32.231,12.659l-3.757,1.638
	c-9.167,3.996-13.397,14.766-9.4,23.933l13.734,31.501c3.391,7.779,12.449,11.337,20.229,7.945l112.913-49.23
	C479.991,446.065,483.547,437.008,480.156,429.229z"/>
<path style="fill:#78B9EB;" d="M285.84,475.76c0,16.004-12.974,28.977-28.977,28.977H59.02c-16.003,0-28.977-12.973-28.977-28.977
	V37.107c0-16.003,12.974-28.977,28.977-28.977h197.843c16.003,0,28.977,12.974,28.977,28.977V475.76z"/>
<path style="fill:#D1E7F8;" d="M285.84,440.057c0,16.004-12.974,28.977-28.977,28.977H59.02c-16.003,0-28.977-12.973-28.977-28.977
	V86.601c0-16.003,12.974-28.977,28.977-28.977h197.843c16.003,0,28.977,12.974,28.977,28.977V440.057z"/>
<path style="fill:#B3D8F4;" d="M89.9,469.032H59.015c-15.996,0-28.978-12.972-28.978-28.978V86.598
	c0-15.996,12.982-28.978,28.978-28.978H89.9c-15.996,0-28.978,12.982-28.978,28.978v353.456
	C60.922,456.061,73.904,469.032,89.9,469.032z"/>
<g>
	<path style="fill:#787680;" d="M93.355,123.617H74.234c-2.076,0-3.774-1.699-3.774-3.774V97.2c0-2.076,1.699-3.774,3.774-3.774
		h19.121c2.076,0,3.774,1.699,3.774,3.774v22.643C97.128,121.918,95.431,123.617,93.355,123.617z"/>
	<path style="fill:#787680;" d="M93.355,204.795H74.234c-2.076,0-3.774-1.699-3.774-3.774v-22.643c0-2.076,1.699-3.774,3.774-3.774
		h19.121c2.076,0,3.774,1.699,3.774,3.774v22.643C97.128,203.097,95.431,204.795,93.355,204.795z"/>
	<path style="fill:#787680;" d="M93.355,285.974H74.234c-2.076,0-3.774-1.699-3.774-3.774v-22.643c0-2.076,1.699-3.774,3.774-3.774
		h19.121c2.076,0,3.774,1.699,3.774,3.774V282.2C97.128,284.275,95.431,285.974,93.355,285.974z"/>
	<path style="fill:#787680;" d="M93.355,367.153H74.234c-2.076,0-3.774-1.699-3.774-3.774v-22.643c0-2.076,1.699-3.774,3.774-3.774
		h19.121c2.076,0,3.774,1.699,3.774,3.774v22.643C97.128,365.454,95.431,367.153,93.355,367.153z"/>
	<path style="fill:#787680;" d="M93.355,448.331H74.234c-2.076,0-3.774-1.699-3.774-3.774v-22.643c0-2.076,1.699-3.774,3.774-3.774
		h19.121c2.076,0,3.774,1.699,3.774,3.774v22.643C97.128,446.634,95.431,448.331,93.355,448.331z"/>
</g>
<path style="fill:#FFC477;" d="M441.825,388.612l-103.332,45.064c-12.348,5.374-26.849-0.322-32.233-12.66l-8.916-20.469
	c-0.865-1.972-2.566-3.462-4.639-4.056l-70.927-20.197c-14.481-4.126-23.398-19.473-19.07-33.904
	c4.217-14.069,19.1-22.25,33.27-18.215l17.299,4.669c4.82,1.308,9.118-2.476,9.118-6.954c0-0.946-0.191-1.932-0.614-2.898
	c-0.221-0.523-0.423-1.037-0.614-1.56c-0.252-0.493-0.493-0.986-0.725-1.51l-50.488-115.79
	c-5.404-12.418-0.755-26.809,10.335-33.884c1.781-1.147,3.744-2.093,5.847-2.818c13.525-4.649,28.319,2.305,34.035,15.407
	l47.792,109.622l75.798-33.038c12.338-5.384,26.849,0.312,32.223,12.65l35.162,80.649l3.341,7.668
	C459.87,368.726,454.173,383.238,441.825,388.612z"/>
<path style="fill:#787680;" d="M472.207,449.455l-112.912,49.231c-7.779,3.391-16.836-0.161-20.228-7.94l-13.737-31.509
	c-3.995-9.158,0.242-19.936,9.409-23.931l15.206-6.632l92.544-40.345c9.168-3.995,19.936,0.231,23.931,9.399l8.826,20.238
	l4.911,11.261C483.548,437.007,479.986,446.064,472.207,449.455z"/>
<path style="fill:#898890;" d="M475.246,417.967l-95.12,41.472c-7.779,3.391-16.836-0.161-20.228-7.94l-9.953-22.824l92.544-40.345
	c9.168-3.995,19.936,0.231,23.931,9.399L475.246,417.967z"/>
<path style="fill:#FFB655;" d="M441.825,388.612l-103.332,45.064c-12.348,5.374-26.849-0.322-32.233-12.66l-8.916-20.469
	c-0.865-1.972-2.566-3.462-4.639-4.056l-70.927-20.197c-14.481-4.126-23.398-19.473-19.07-33.904
	c4.217-14.069,19.1-22.25,33.27-18.215l17.299,4.669c4.82,1.308,9.118-2.476,9.118-6.954c0-0.946-0.191-1.932-0.614-2.898
	c-0.221-0.523-0.423-1.037-0.614-1.56c-0.252-0.493-0.493-0.986-0.725-1.51l-50.488-115.79
	c-5.404-12.418-0.755-26.809,10.335-33.884l96.454,221.761c3.543,8.145,12.981,11.923,21.166,8.47l113.236-47.76l3.341,7.668
	C459.87,368.726,454.173,383.238,441.825,388.612z"/>
<path d="M487.533,426.008l-13.737-31.499c-2.566-5.897-7.125-10.557-12.952-13.254c4.418-8.433,5.112-18.708,1.026-28.087
	l-38.503-88.307c-5.334-12.227-17.319-19.533-29.879-19.533c-11.746,0-12.849,3.596-81.363,32.535l-18.577-42.599
	c0-20.772,0-195.639,0-198.724C293.55,16.383,277.156,0,257.009,0H59.041C38.894,0,22.501,16.383,22.501,36.541
	c0,21.722,0,417.158,0,438.919c0,20.147,16.393,36.541,36.541,36.541H257.01c20.147,0,36.541-16.393,36.541-36.541
	c0-10.023,0-53.254,0-63.46c3.811,6.392,5.984,23.378,24.263,29.868c-2.667,6.37-2.828,13.777,0.141,20.59l13.737,31.499
	c5.191,11.921,19.078,17.24,30.824,12.106l112.912-49.231C487.212,451.704,492.746,437.938,487.533,426.008z M278.455,475.459
	c0,11.825-9.621,21.445-21.445,21.445H59.041c-11.825,0-21.445-9.621-21.445-21.445v-6.149c6.018,4.388,13.435,6.974,21.445,6.974
	H257.01c8.011,0,15.427-2.586,21.445-6.974V475.459z M278.455,439.734c0,11.825-9.621,21.455-21.445,21.455H59.041
	c-11.825,0-21.445-9.631-21.445-21.455V86.063c0-9.007,5.686-17.118,14.159-20.177c3.915-1.419,5.948-5.746,4.529-9.661
	c-1.419-3.925-5.746-5.948-9.661-4.539c-3.271,1.177-6.3,2.808-9.027,4.8V36.541c0-11.825,9.621-21.445,21.445-21.445H257.01
	c11.825,0,21.445,9.621,21.445,21.445v19.956c-6.018-4.388-13.435-6.974-21.445-6.974H79.178c-4.176,0-7.548,3.371-7.548,7.548
	c0,4.166,3.371,7.548,7.548,7.548H257.01c11.825,0,21.445,9.621,21.445,21.445v114.583l-10.909-25.018
	c-7.427-17.037-26.759-25.742-44.028-19.815c-11.511,3.953-20.593,13.826-23.126,26.336h-73.916c-4.166,0-7.548,3.381-7.548,7.548
	c0,4.176,3.381,7.548,7.548,7.548h74.087c1.306,5.634,0.897,3.038,28.168,66.087h-53.85c-4.166,0-7.548,3.381-7.548,7.548
	c0,4.166,3.381,7.548,7.548,7.548h60.431c18.923,43.378,17.875,41.085,18.456,42.206l-15.639-4.217
	c-20.246-5.737-40.985,7.812-44.138,28.097h-67.516c-4.166,0-7.548,3.371-7.548,7.548c0,4.166,3.381,7.548,7.548,7.548h68.492
	c3.584,12.167,13.273,21.196,24.605,24.424l58.881,16.776L278.455,439.734L278.455,439.734z M313.637,417.796
	c-7.987-15.498-7.845-25.938-18.728-29.043c-15.174-4.325-12.192-3.479-70.927-20.197c-5.134-1.467-9.47-5.057-11.945-9.601
	c-8.446-15.404,7.027-31.948,21.838-27.01l17.309,4.669c12.347,3.326,23.092-9.089,17.973-20.852
	c-1.614-3.663-2.838-6.434-3.746-8.486c-5.769-13.294-19.342-44.481-48.071-110.364c-4.342-9.927,0.505-22.131,11.412-25.873
	c9.379-3.21,19.946,1.62,24.042,11.02c92.823,212.917-5.71-13.098,47.792,109.622c1.799,4.106,6.555,5.926,10.597,4.156
	l75.788-33.038c8.302-3.623,18.014,0.191,21.637,8.494l38.503,88.307c3.623,8.312-0.191,18.014-8.494,21.637l-103.342,45.054
	C326.971,429.912,317.259,426.098,313.637,417.796z M472.881,438.043c-2.064,5.261-0.572,1.758-116.797,53.266
	c-3.703,1.61-8.021-0.091-9.631-3.784l-13.737-31.499c-2.234-5.122,0.111-11.11,5.233-13.334
	c117.451-51.19,108.509-47.822,111.765-47.822c3.808,0,7.631,2.192,9.329,6.078C471.882,432.067,474.814,433.117,472.881,438.043z"
	/>
<path d="M101.856,40.904h75.27c4.169,0,7.548-3.378,7.548-7.548s-3.378-7.548-7.548-7.548h-75.27c-4.169,0-7.548,3.378-7.548,7.548
	S97.687,40.904,101.856,40.904z"/>
<circle cx="204.631" cy="33.36" r="9.558"/>
<path d="M93.357,85.882H74.236c-6.249,0-11.321,5.072-11.321,11.321v22.643c0,6.239,5.072,11.321,11.321,11.321h19.121
	c6.239,0,11.321-5.082,11.321-11.321V97.203C104.678,90.954,99.596,85.882,93.357,85.882z M89.583,116.072H78.01v-15.095h11.573
	V116.072z"/>
<path d="M93.357,167.054H74.236c-6.249,0-11.321,5.082-11.321,11.321v22.643c0,6.249,5.072,11.321,11.321,11.321h19.121
	c6.239,0,11.321-5.072,11.321-11.321v-22.643C104.678,172.136,99.596,167.054,93.357,167.054z M89.583,197.244H78.01v-15.095h11.573
	V197.244z"/>
<path d="M93.357,248.236H74.236c-6.249,0-11.321,5.082-11.321,11.321V282.2c0,6.239,5.072,11.321,11.321,11.321h19.121
	c6.239,0,11.321-5.082,11.321-11.321v-22.643C104.678,253.318,99.596,248.236,93.357,248.236z M89.583,278.427H78.01v-15.095h11.573
	V278.427z"/>
<path d="M93.357,329.418H74.236c-6.249,0-11.321,5.072-11.321,11.321v22.643c0,6.239,5.072,11.321,11.321,11.321h19.121
	c6.239,0,11.321-5.082,11.321-11.321V340.74C104.678,334.49,99.596,329.418,93.357,329.418z M89.583,359.609H78.01v-15.095h11.573
	V359.609z"/>
<path d="M93.357,410.59H74.236c-6.249,0-11.321,5.082-11.321,11.321v22.643c0,6.249,5.072,11.321,11.321,11.321h19.121
	c6.239,0,11.321-5.072,11.321-11.321v-22.643C104.678,415.672,99.596,410.59,93.357,410.59z M89.583,440.781H78.01v-15.095h11.573
	V440.781z"/>
<path d="M126.477,116.072h72.457c4.176,0,7.548-3.381,7.548-7.548c0-4.176-3.371-7.548-7.548-7.548h-72.457
	c-4.166,0-7.548,3.371-7.548,7.548C118.929,112.691,122.309,116.072,126.477,116.072z"/>
<path d="M229.124,116.072h18.215c4.166,0,7.548-3.381,7.548-7.548c0-4.176-3.381-7.548-7.548-7.548h-18.215
	c-4.166,0-7.548,3.371-7.548,7.548C221.577,112.691,224.957,116.072,229.124,116.072z"/>
<path d="M126.477,278.427h18.215c4.166,0,7.548-3.381,7.548-7.548c0-4.166-3.381-7.548-7.548-7.548h-18.215
	c-4.166,0-7.548,3.381-7.548,7.548C118.929,275.045,122.309,278.427,126.477,278.427z"/>
<path d="M118.932,433.236c0,4.169,3.378,7.548,7.548,7.548h120.857c4.169,0,7.548-3.378,7.548-7.548s-3.378-7.548-7.548-7.548
	H126.48C122.311,425.688,118.932,429.067,118.932,433.236z"/>
<g>
</g>
<g>
</g>
<g>
</g>
<g>
</g>
<g>
</g>
<g>
</g>
<g>
</g>
<g>
</g>
<g>
</g>
<g>
</g>
<g>
</g>
<g>
</g>
<g>
</g>
<g>
</g>
<g>
</g>
</svg>
